<?xml version="1.0" encoding="iso-8859-1"?>
<!-- Generator: Adobe Illustrator 19.0.0, SVG Export Plug-In . SVG Version: 6.00 Build 0)  -->
<svg version="1.1" id="Capa_1" xmlns="http://www.w3.org/2000/svg" xmlns:xlink="http://www.w3.org/1999/xlink" x="0px" y="0px"
	 viewBox="0 0 428.8 428.8" style="enable-background:new 0 0 428.8 428.8;" xml:space="preserve">
<circle style="fill:#85CDE1;" cx="214.4" cy="214.4" r="214.4"/>
<circle style="fill:#FBFCFE;" cx="212.4" cy="214" r="100.4"/>
<path style="fill:#E9EBE6;" d="M260.8,126c22.8,18.4,37.6,46.8,37.6,78.4c0,55.6-45.2,100.4-100.4,100.4c-17.6,0-34-4.4-48.4-12.4
	c17.2,14,39.2,22,62.8,22c55.6,0,100.4-45.2,100.4-100.4C313.2,176,292,142.8,260.8,126z"/>
<circle style="fill:#F03229;" cx="212.4" cy="214" r="60.4"/>
<circle style="fill:#414143;" cx="212.4" cy="214" r="33.2"/>
<ellipse style="fill:#FFFFFF;" cx="232" cy="192.4" rx="23.2" ry="11.6"/>
<path style="fill:#7E7B7F;" d="M113.2,146c-2.4,1.2-3.6,4-3.2,6.8l2,11.6l-20-4c-2.4-0.4-5.2,1.2-5.6,3.6c-0.4,2.4,1.2,5.2,3.6,5.6
	l23.6,4.8l4.4,24.4c0.8,3.6,4,5.6,7.6,5.2c3.6-0.8,5.6-4,5.2-7.6l-6.8-38.8l28,5.6c2.8,0.4,5.2-1.2,5.6-3.6c0-0.8,0-1.6,0-2.4
	c-0.4-1.6-2-2.8-3.6-3.2l-21.2-4.4l30.8-16.8c2.8-1.6,4-4.8,2.8-7.6c0-0.4-0.4-0.8-0.4-0.8c-1.6-3.2-5.6-4.4-8.8-2.4L113.2,146z"/>
<g>
</g>
<g>
</g>
<g>
</g>
<g>
</g>
<g>
</g>
<g>
</g>
<g>
</g>
<g>
</g>
<g>
</g>
<g>
</g>
<g>
</g>
<g>
</g>
<g>
</g>
<g>
</g>
<g>
</g>
</svg>
