<svg xmlns="http://www.w3.org/2000/svg" viewBox="0 0 129 129" width="512" height="512"><path d="M115.7 13.1c4.3 4.3 6.7 10 6.7 16.1 0 6.1-2.4 11.8-6.7 16.1-1.9 1.9-4.1 3.4-6.5 4.5l11.9 11.9c1.6 1.6 1.6 4.2 0 5.7l-54 54c-1.6 1.6-4.1 1.6-5.7 0l-54-54c-.8-.8-1.2-1.8-1.2-2.9 0-1.1.4-2.1 1.2-2.9l17.2-17.2c1.1-1.1 2.8-1.5 4.3-.9s2.5 1.9 2.6 3.5c.3 3.5 1.8 6.8 4.2 9.3 2.8 2.8 6.5 4.3 10.4 4.3 3.9 0 7.6-1.5 10.4-4.3 2.8-2.8 4.3-6.5 4.3-10.4 0-3.9-1.5-7.6-4.3-10.4-2.5-2.5-5.8-4-9.3-4.2-1.6-.1-3-1.1-3.5-2.6-.6-1.5-.2-3.2.9-4.3L61.3 7.7c.8-.8 1.8-1.2 2.9-1.2 1.1 0 2.1.4 2.9 1.2L79 19.6c1.1-2.4 2.7-4.6 4.5-6.5 8.9-8.9 23.4-8.9 32.2 0zm-26.4 5.7c-2.4 2.4-3.9 5.5-4.2 8.9-.2 1.6-1.2 2.9-2.7 3.4-1.5.5-3.1.2-4.2-1L64.3 16.2 55.5 25c2.5 1.1 4.9 2.7 6.8 4.7 4.3 4.3 6.7 10 6.7 16.1 0 6.1-2.4 11.8-6.7 16.1-4.3 4.3-10 6.7-16.1 6.7-6.1 0-11.8-2.4-16.1-6.7-2-2-3.6-4.3-4.7-6.8l-9.3 9.3 48.2 48.4 48.2-48.2-13.9-13.9c-1.1-1.1-1.5-2.8-1-4.2.5-1.5 1.9-2.5 3.4-2.7 3.4-.3 6.5-1.8 8.9-4.2 2.8-2.8 4.3-6.5 4.3-10.4 0-3.9-1.5-7.6-4.3-10.4-5.6-5.7-14.9-5.7-20.6 0z" data-original="#000000" class="active-path" data-old_color="#cccccc" fill="#ccc"/></svg>