<svg xmlns="http://www.w3.org/2000/svg" height="512" viewBox="0 -40 512 512" width="512"><path d="M501.484 157.559h-28.66V56.254c0-5.816-4.332-10.785-10.148-10.785H261.129L217.035 2.855C215.023.953 212.38 0 209.633 0h-162c-2.856 0-5.606 1.059-7.613 3.172-2.012 2.113-3.067 4.652-2.961 7.508l5.605 146.879H10.621c-3.172 0-6.133 1.586-8.14 4.015-2.008 2.434-2.856 5.711-2.325 8.778L45.2 422.867c.953 5.074 5.29 8.672 10.364 8.672h401.402c5.183 0 9.515-3.598 10.363-8.672l44.52-252.41c.527-3.066-.32-6.45-2.328-8.777-2.008-2.535-4.97-4.121-8.036-4.121zM58.63 21.149h146.773l44.094 42.613c2.012 1.906 4.652 2.855 7.402 2.855H451.68v90.942h-19.035v-59.22c0-5.816-4.758-10.573-10.575-10.573H90.035c-5.816 0-10.574 4.757-10.574 10.574v59.219H63.918zm352.867 136.41H100.61v-48.645h310.887zm36.586 252.726H64.551L23.312 178.707h465.586zm0 0" data-original="#000000" class="active-path" data-old_color="#cccccc" fill="#ccc"/><path d="M263.773 216.457c-2.011-2.113-4.761-3.383-7.722-3.383-2.961 0-5.707 1.27-7.719 3.383l-61.965 66.512c-4.015 4.23-3.699 10.996.528 14.91 4.23 4.02 11 3.703 14.91-.527l43.672-46.739v115.473c0 5.812 4.761 10.574 10.574 10.574 5.816 0 10.578-4.762 10.578-10.574V250.613l43.566 46.844c2.114 2.219 4.864 3.383 7.72 3.383 2.534 0 5.179-.953 7.19-2.856 4.227-4.02 4.547-10.68.528-14.91zm0 0" data-original="#000000" class="active-path" data-old_color="#cccccc" fill="#ccc"/></svg>