<svg xmlns="http://www.w3.org/2000/svg" width="512" height="512"><path d="M502 254.347h-6v-136c0-21.266-16.683-38.703-37.648-39.925l-10.273-42.435c-3.111-12.847-16.094-20.769-28.938-17.657L170.07 78.627a7.985 7.985 0 0 0-2.07-.28H40c-22.056 0-40 17.944-40 40v336c0 22.056 17.944 40 40 40h416c22.056 0 40-17.944 40-40v-72h6c5.514 0 10-4.486 10-10v-108c0-5.514-4.486-10-10-10zm-22-136v.017a39.86 39.86 0 0 0-13.586-6.638l-3.994-16.5c10.125 2.815 17.58 12.111 17.58 23.121zm-440-24h65.136l-66.731 16.155c-.042.008-.082.021-.123.03l-.165.04c-.021.005-.042.013-.063.019-.23.057-.455.124-.677.2l-.117.043a8.133 8.133 0 0 0-.604.247l-.165.079a7.786 7.786 0 0 0-1.96 1.354 8.636 8.636 0 0 0-.53.547 8.001 8.001 0 0 0-1.693 3.1 7.157 7.157 0 0 0-.084.328 7.838 7.838 0 0 0-.087.404c-.026.138-.045.278-.064.417a7.774 7.774 0 0 0-.039.342 7.955 7.955 0 0 0-.025.49c-.002.066-.01.131-.01.198 0 .038.005.074.006.112.002.159.012.318.024.479.009.117.017.234.03.35.016.133.038.266.061.4.024.14.048.28.079.418.01.043.014.086.024.129.019.076.046.148.066.223.038.141.078.281.124.419.042.126.088.249.136.371a6.854 6.854 0 0 0 .342.76c.044.085.088.171.135.254.087.155.179.305.275.453l.121.182a7.861 7.861 0 0 0 .864 1.045c.037.038.074.076.113.113a7.864 7.864 0 0 0 1.201.97 8.424 8.424 0 0 0 .662.393c.178.094.36.181.545.262.049.021.098.043.148.063.197.082.397.154.601.22l.117.037c.223.068.448.126.677.174l.065.014a8.011 8.011 0 0 0 1.578.159h.027c.1 0 .198.004.298 0H416a8 8 0 0 0 0-16H107.065l315.84-76.46c4.273-1.037 8.589 1.6 9.623 5.872l17.089 70.59h-1.613a8 8 0 0 0 0 16H456c.805 0 1.601.042 2.386.119.31.058.625.096.943.117 11.663 1.626 20.671 11.66 20.671 23.764v.027a39.788 39.788 0 0 0-24-8.022H40c-13.234 0-24-10.767-24-24s10.767-24 24-24zm440 360c0 13.233-10.766 24-24 24H40c-13.234 0-24-10.767-24-24V150.325a39.788 39.788 0 0 0 24 8.022h416c13.233 0 24 10.767 24 24v72H363.002c-6.066 0-11.002 4.936-11.002 11.002v105.996c0 6.066 4.936 11.002 11.002 11.002H480v72zm16-88H368v-96h119.884c.039 0 .077.006.116.006s.077-.005.116-.006H496v96z" data-original="#000000" class="active-path" data-old_color="#cccccc" fill="#ccc"/><path d="M432 310.347a8 8 0 0 0-8 8c0 4.411-3.589 8-8 8s-8-3.589-8-8 3.589-8 8-8a8 8 0 0 0 0-16c-13.234 0-24 10.767-24 24s10.766 24 24 24 24-10.767 24-24a8 8 0 0 0-8-8z" data-original="#000000" class="active-path" data-old_color="#cccccc" fill="#ccc"/></svg>